<svg xmlns="http://www.w3.org/2000/svg" xmlns:xlink="http://www.w3.org/1999/xlink" viewBox="0 0 512 512"><defs><style>.a{fill:none;}.b{clip-path:url(#a);}.c,.d,.e{fill-rule:evenodd;}.d{fill:#652440;}.e{fill:#fefefe;}</style><clipPath id="a"><rect class="a" width="512" height="512"/></clipPath></defs><title>twitter</title><g class="b"><path class="c" d="M348.72,390.68a1.47,1.47,0,0,0,.13-.3Z"/></g><path class="d" d="M469.33,308.15c-.41,0-.84.05-1.25.05.81-.07,1.68-.18,2.58-.28.46.05.92.1,1.36.18C471.12,308.1,470.2,308.13,469.33,308.15Zm-4.58-12a2.33,2.33,0,0,1,.51-1.16c.57,2.4,1.66-.28,2.38,1.18C466.67,296.14,465.7,296.14,464.75,296.12Zm4.3-1.16c.33.07.51.6.64,1.18-.33,0-.66,0-1,0C468.67,295.61,468.72,295.16,469.05,295ZM457,295c-.25,0-.53.2-.79.18-.2-.41-.41-.74-.59-1.15l.8-.31.87-.15c.25,0,.51-.46.76-.49-.1.28-.18.91-.2.91h.59C458,294,457.46,294.86,457,295ZM417.71,261.1c-.69-.11-1.36-.21-2-.33.05-.18.08-.38.13-.64-.18.21-.39.38-.57.58-.45-.07-.92-.12-1.38-.22l.46-1.62c1.26.22,2.54.43,3.82.63Zm-58,123a16.74,16.74,0,0,0-8.47-.23l-.69.15a.3.3,0,0,0-.39.1l-.76.23a6.15,6.15,0,0,0-.85-.76,4.34,4.34,0,0,0,1.56-1.44c.69.18,1.38.35,2,.56,2.25.65,5.14-.23,8-.11.86.05,1.73.16,2.58.28A6.59,6.59,0,0,0,359.7,384.15Zm-17.17-3.32c.72.05,1.43.13,2.12.23A12.85,12.85,0,0,1,342.53,380.83ZM296,130.14a2.6,2.6,0,0,0-.62.05,1.16,1.16,0,0,0,.21-.66c-.21.08-.33-.26-.46.09-.08,0-.13-.62-.18-.62h-1.54c.26,0,.49.34.69.14-.12,0-.25.26-.38.21a17.11,17.11,0,0,1,4.12-.54c.05,0,.07.23.1.39a4.52,4.52,0,0,0-2.07.44A1.47,1.47,0,0,0,296,130.14Zm-34.2.63s.05,0,.05,0l.05,0Zm-12-13.07v.07h-.4ZM225.12,407l-.1-.71s0,0,.07-.05a7.19,7.19,0,0,1,.72.66C225.58,407,225.35,407,225.12,407Zm-3.3-.86c-.59.15-.48-.43-.38-1a3.14,3.14,0,0,1,.53,0l-.07.38.1-.38a1.62,1.62,0,0,1,.31,0A1.6,1.6,0,0,0,221.82,406.16Zm-7.11-.49a3.09,3.09,0,0,0,.51,0C215.09,406,214.94,406.06,214.71,405.67Zm-3.27-.1a3.42,3.42,0,0,1,.4-1.11,3.8,3.8,0,0,1,.44.31A2.9,2.9,0,0,0,211.44,405.57Zm-.85-.55a1.71,1.71,0,0,1-.13-.89c-.53.74-1.33.66-1.71,1a2.37,2.37,0,0,0,0-.35c.54-.15,1.16-.48,1.69-.61a1.42,1.42,0,0,1,.54-.05,2.08,2.08,0,0,1,.51.18C211.18,404.71,210.82,405.4,210.59,405Zm-5.3-10.64a1.88,1.88,0,0,1,0-.48,1.73,1.73,0,0,1-.76.58c-.26,0-.51,0-.77,0,.51-.15,1.05-.43,1.53-.56a1.47,1.47,0,0,1,.54,0,3.12,3.12,0,0,1,.39.15A3.65,3.65,0,0,0,205.29,394.38Zm-2.83,8.35c0-.05,0-.73,0-.73h2.56c.1,0,.2.39.3.44A21.24,21.24,0,0,0,202.46,402.73Zm-3.53,1.4a3,3,0,0,1,.12-.78,0,0,0,0,1,0,0c.23,0,.49,0,.72-.05.41.35.81-.38,1.17-.63.23,0,.49-.64.72-.64h.69s0,.69,0,.73C201.31,402.84,200.15,403.65,198.93,404.13Zm-8.34-.12a2.76,2.76,0,0,1,.23-.86c.07,0,.18,0,.28,0A3.25,3.25,0,0,0,190.59,404Zm-5.17-10.21c0-.05,0-.1,0-.15h.05A.68.68,0,0,0,185.42,393.8Zm-4-10.39c1,0,2.05,0,3,0a3.1,3.1,0,0,1,.92.23C184,383.57,182.68,383.47,181.38,383.41Zm2.07,20.39a1.12,1.12,0,0,1,.23-.61l.56.16A5.84,5.84,0,0,0,183.45,403.8Zm-1.38-.76a1.34,1.34,0,0,1,.13-.23c.28.05.53.13.82.2a.37.37,0,0,1-.16.07,5,5,0,0,0,.64.05h.05C182.89,403.81,182.48,403.29,182.07,403Zm-2.38.46-.82,1.61c-.13-.56.23-1.35.16-1.84-.57.87-1.28.21-1.85,1.37.06-.56.31-.65.44-1.05-.49-.33-1.89,1.59-2.3,1.1l.35-.49c.46-.16.93-1,1.21-1.27-.16-.1-.31-.93-.46-.93h4C180.2,402,180,403.06,179.69,403.5Zm-5.17-9.71-.74,1.15h-.07a6.58,6.58,0,0,1,.15-1.36l.79,0C174.63,393.69,174.57,393.71,174.52,393.79Zm-1-5.18c-.72,1.11-1.38.6-2.12.93a12.7,12.7,0,0,1-3.25-.71,1.49,1.49,0,0,0,.25-.45,2.33,2.33,0,0,1-.81.15A2.44,2.44,0,0,1,167,388a4,4,0,0,0,.13-.64,4.31,4.31,0,0,0,.61-.1,3.55,3.55,0,0,0,1,0,1.55,1.55,0,0,0,.23.05,14.32,14.32,0,0,0,3.22.79,5.16,5.16,0,0,0,1.51.27,3.15,3.15,0,0,0,.92.36C174.16,389,173.76,389.09,173.5,388.61Zm-1.48,5.9c0-.56.3-.71.46-1.12-.51-.33-1.92,1.57-2.33,1.09l.36-.5a2.9,2.9,0,0,0,1.2-.66c-.08-.05-.15-.13-.23-.18.74-.13,1.35-.1,1.64.46l.25,0C172.91,393.8,172.43,393.65,172,394.51Zm-5.2,7.78c-.58.33-.15-.52,0-1.21h.44a5.59,5.59,0,0,1,1.35.28A6.69,6.69,0,0,0,166.82,402.29Zm-3.42-1.17c.92-.05,1.81-.1,2.68-.13A4,4,0,0,1,163.4,401.12ZM161.5,386h.21c.64,0,1.25.81,1.79,1.09.18-.2.33,0,.49-.1s.51.12.74.1a2,2,0,0,1,0,.49c-.51.35-1-.18-1.56-.23C162.6,387.14,162,386,161.5,386Zm.16,6c-.21.11-.28.06-.28-.07a3.45,3.45,0,0,1,.66-.15A3.72,3.72,0,0,0,161.66,392Zm-2.77,9.6,0,0h.07S158.92,401.62,158.89,401.62Zm5-21.6c-.26,0-.51,0-.74,0a3,3,0,0,1-1.41-.79c.53-.58,1.07-.07,1.43-.85,1.46.22,2.92.5,4.35.75-.64.21-1.25-.12-2,.82-.21,0-.08-.51-.28-.48A2.35,2.35,0,0,1,163.86,380ZM122.92,243.46v1l-.27,0Zm18-65c.82,0,1.61-.07,2.38-.1a5.23,5.23,0,0,1-2.79.15A3.77,3.77,0,0,1,141,178.48Zm8.58-48v.12l-.34-.05ZM167,387.34a.54.54,0,0,1-.28.18s-.08-.1-.1-.15h.23Zm9.9,1-.23.07s0,0,0,0,.05,0,.1-.05Zm-1.18-3.17c-.48,0-1.35.36-1.66.18-.13-.1,0-.66-.23-.66-.38-.05-.92.38-1.3.36-1.21-.08-2.66-.23-4.07-.21a13.57,13.57,0,0,1-3.38-.45,5.14,5.14,0,0,0,.36-1.17.36.36,0,0,1-.36,0c1.26-.33,2.51-.68,2.92.18,1.79.13,3.81.13,5.91.13a.86.86,0,0,0,1.23.1,1.51,1.51,0,0,0,1,.54c.72.41,1.77-.16,1.41-.16h0c.58,0,1.3.95,2.07,1.13C178.26,385.15,176.93,385.09,175.67,385.16ZM286.79,106.49l.13.71-.07,0a4.22,4.22,0,0,1-.72-.63A5,5,0,0,1,286.79,106.49ZM153.73,391.39h0a.12.12,0,0,0,.08,0ZM143,386.05a3.79,3.79,0,0,0,.84-1.24c1.05-.05,2,0,2.58,1.11,2.48-1.62,4.22.46,6.27.15a1.21,1.21,0,0,1,.28.21C149.71,386.38,146.44,386.13,143,386.05ZM81.8,314.78,80,315.7l.15-.77,1.79-.91Zm19.41-135.36,0-.15-1.31.08.18.17c-.43,0-.87.08-1.33.13l.79-.38c-.12-.15-.23-.89-.33-1,.67.1,1.31-.28,2-.28h0c.18,0,.36.71.54.73C101.6,178.73,101.39,179.4,101.21,179.42ZM71.39,248l.23-.63.15.35Zm-1.61-.48c-.11.07-.16-.13-.26-.2a3.22,3.22,0,0,1,.36-.63c.07-.06.15.15.23.22C70,247.09,69.85,247.39,69.78,247.47Zm-1.67-21.55-1.79.91.15-.76,1.79-.91Zm-5.32-10.16,0-.4.15.1Zm-5.7.28-1.15.41.07-.33,1.13-.41Zm-2.31,3.85c-.28,0-.58-.26-.87-.23a11.55,11.55,0,0,0,.18-1.66h-.56a10.57,10.57,0,0,0,2.1-.47c.2.48.49,1.18.71,1.69C56,219.34,55.27,219.94,54.78,219.89ZM353,111.88h0s0,0-.05,0S353,111.88,353,111.88Zm68.71,54.58-.26.63-.15-.36Zm1.61.47c.07-.07.15.13.23.21a5.19,5.19,0,0,1-.34.63c-.1,0-.17-.15-.23-.23A2.36,2.36,0,0,1,423.34,166.93ZM425,188.49l1.79-.91-.13.76-1.79.91Zm5.32,10.15,0,.41-.15-.1Zm5.72-.28,1.15-.4-.07.33-1.15.41Zm2.28-3.84c.31,0,.59-.94.9-1L439,194h.59c-.71,2-1.43,1.5-2.12,1.65-.2-.46-.49-.58-.69-1.06A4.14,4.14,0,0,1,438.3,194.52ZM469.43,256l-.25.65-.16-.38Zm1.61.47c.08-.05.16.16.23.23a4.32,4.32,0,0,1-.33.61c-.1.08-.18-.13-.26-.23A4.69,4.69,0,0,1,471,256.43ZM472.68,278l1.79-.94-.13.76-1.79.94ZM500,313.29c-3-.3-6-.63-8.23-.94-1-.12-1.84-.23-2.48-.33l.74-.53-.82-.46c.67-.53.54-.93-.08-1.24a3.61,3.61,0,0,0,1.72-2c-.9-.91-1.95.71-3.23.68s-2.53.15-4,.26c-1.22-.11-2.45-.21-3.53-.28a11.94,11.94,0,0,1,3.92-.33c.15-.41.31-.79.46-1.19a41.61,41.61,0,0,1-6.12.13c8-.84,17.66-1.78,28.4-2.84,0,0-6-.61-12-1.16-.59-.08-.81-.13-1.81-.21v-5c-2-.26-4.4-.63-6.63-1.07-.33-6.83-5-4.63-6.58-1.41,0,.17.07.3.09.45l-1.35.15c-.25-3.39-1.66-3.26-2.32.26a20.58,20.58,0,0,1-4.66,0,4.47,4.47,0,0,0,.49-2.56c-2.33-.35-6.06-2.93-9.1,1.32.48-.38.66.23.79,1-.69,0-1.38-.07-2.05-.12a5.3,5.3,0,0,0,.85-1.62c-.79-.86-2.36-1.5-2.87.38a6.92,6.92,0,0,0-1,.25l.05-1.47a8.49,8.49,0,0,0,.85-.35c.53-.13,1-.26,1.53-.36a1.83,1.83,0,0,0,2.4-.58c1.64-.38,3-.71,3.84-.89,2-.45,2.94-1.87,4.62-4,.49-.07,1-.37,1-1.36v-.08a10.71,10.71,0,0,0,2-2c-1-.1-1.65-.18-2.36-.28a.39.39,0,0,0-.65-.07,4.24,4.24,0,0,1-.44-.05c2.77-3.85,4.09,0,6.85-5.32-.87-.08-1.48-.13-2.66-.2,2.69-2,4.74-3.6,7.14-5.47-1.87-2.54-5,.65-7.8,1.57-.25-1.07-.61-2.46-.89-3.63.48-.25,1.66-1.37,2.4-1.24,2.07.41,4.22-.91,7-4.05,1.76-2,3.6-2.58,5.88-4.13-1.56-3.95-5-.78-8.08,1.4-.74-.05-1.31-.18-1.43-.41,2.1-1.27,4.19-1.9,6.54-6.58-.66-3.73-3.47-.1-5.39.58s-3.84,1.19-5.81,1.75c-.25-2.13-.53-4.13-.82-6.38,1.69-.64,3.35-1.3,5.32-2.11.13-3.16.21-5.44.26-7.29-1.87-.53-3.27-2.38-5.12-1.27-7.85,4.74-13.35,1.35-20,1.75a190.24,190.24,0,0,1-19.42-.18,84.29,84.29,0,0,0-17.88.74,8.63,8.63,0,0,1-2.25.1,28.88,28.88,0,0,1,1-5.22l1.51-.07c.53.3,1,1,1.58,1.06,2.12.4,3.63-.58,5.15-1a.82.82,0,0,0,.1-.28c8.69-.25,20.36-.58,33.64-1.24,0,0-5.73-.94-11.47-1.88s-11.43-2-11.33-2.38c5.66-2.15-4.42-3.37-8.52-4.08a74.93,74.93,0,0,0-8.87-1c-.54,0-1.07,0-1.59-.07,2.79-.26,5.58-.53,8.42-.94,1.94-.3,4-.76,6.16-1.29.16.1.28.08.44-.1,1.25-.33,2.51-.66,3.78-1,3.1-.89,6-1.87,9-2.68a4.18,4.18,0,0,0,.6.1v-.33c1,0,.63-.11.86-.18,7.24-1.22,25.06-2.89,47.14-5.09l-11.87-1.17c-3-.3-5.94-.63-8.19-.93-1-.13-1.83-.23-2.47-.33.23-.16.49-.36.75-.51-.28-.15-.56-.33-.84-.48,2.58-2-6.55-2.33-10.49-2.64a79.71,79.71,0,0,0-9.58-.25c-1.71.08-3.31.18-5.31.28v-.93a102.39,102.39,0,0,1-11.8-2.18c-1.08.12-2.15.3-3.36.43.57-.38,1.18-.79,1.76-1.24l.21-.15c.33,1.84,1.75.35,2.08-1.32a.44.44,0,0,0,0-.18l4-2.86c-.33,0-.6,0-.86-.05a2.12,2.12,0,0,0,0-.38,2.54,2.54,0,0,1-.63-.36c1.17-.55,2.07.21,3.42-1.69l-1.76-.1,2.66-1.4c.53,1.85,2.35.25,3-1.69-.82-.89-2.38-1.53-2.89.35a7.71,7.71,0,0,0-1,.25l.07-1.47a8.24,8.24,0,0,0,2.89-1.64,18.25,18.25,0,0,1,3.84-1.83c-1.69-2.48-5.6.79-7.9.59a38.44,38.44,0,0,1,4.75-3.48H430.17c.18,0,.38.18.56-.2-.84-.05-1.48.31-2.66.21,2.69-2,4.73-3.37,7.16-5.27-1.89-2.51-5,.76-7.82,1.67-.26-1.06-.62-2.4-.9-3.54.49-.26,1.69-1.37,2.4-1.22,2.08.38,4.23-.9,7-4.06,1.77-2,3.64-2.55,5.89-4.12-1.57-3.93-5-.79-8.06,1.42-.77-.08-1.33-.18-1.46-.41,2.1-1.29,4.19-1.89,6.55-6.6-.64-3.7-3.48-.11-5.4.6s-3.84,1.2-5.8,1.75c-.26-2.13-.52-4.15-.82-6.41,1.69-.63,3.35-1.26,5.34-2.07.11-3.17.18-5.47.26-7.32-1.87-.51-3.28-2.38-5.14-1.27-7.83,4.74-13.33,1.34-20,1.75a184.5,184.5,0,0,1-19.41-.15,82.31,82.31,0,0,0-17.88.73,15.52,15.52,0,0,1-4.37-.1c-6,4.63-10.6,3.11-15.35,3.11-1.44,0-2.87,0-4.3,0a8.88,8.88,0,0,0,.44-.81c-5.07-1.37-11.18.38-16.27-1.37-.52-.83-1.31-2.3-2.26-2.3h.23l.08-.38a2.45,2.45,0,0,1,.41.11c4.68,1.77,9.77,1.74,16.47.27a.13.13,0,0,0,0-.1c1.38-.1,2.84-.29,4.32-.52a.34.34,0,0,0,.46,0c4.84-.78,10-2,14.58-2.75,7.16-.54,24.58-.66,46.28-1.78L399.22,145c-5.73-1-11.44-2-11.34-2.38,5.68-2.18-4.42-3.4-8.52-4.11a79.12,79.12,0,0,0-8.87-1c-2.76-.15-5.37-.21-8.24-.43-3.73-.3-7.34-.79-10.92-1.39s-7.08-1.22-10.59-1.88-7-1.31-10.49-1.82a103.55,103.55,0,0,0-10.61-1c-2.71-.13-5.45-.23-8.19-.3a3.36,3.36,0,0,0,2.53-2.28c-.81.2-4.91,1.82-2.89,1.49.21-.05.08.53.13.79-.64,0-1.28,0-1.89,0-.08-.26-.26-.31-.46-.18,0,0,0,0,0-.05l-.25.2c-1.72-.05-3.46-.05-5.17-.07.13,0,.25-.13.38-.18-.1-.91-1.4-.69-1.92.15-.89,0-1.76,0-2.66,0a2.23,2.23,0,0,0,.82-1.29,6,6,0,0,1-1.79.18c.05-.33.08-.66.23-.56,1.46,0,2.76-.45,3.86-.53.16.05.11.56.13.84.61-1.32,1-.66,1.69-.76,2.64-.41,5.45-.74,8.11-.89,1.33-.07,2.63-.12,3.89-.15s2.4,0,3.48.08a1.21,1.21,0,0,1,.28-.18c.25,0,.61,0,1-.1a4.65,4.65,0,0,0,2.76-.43c.08,0,.05.17.05.35-1.81,2.43-3.76.41-5.34,1.47.18.05.48-.15.35.48-1.07-1-3.19-2.05-5,.91,7.11-1.49,15.32,1.19,22.62-.05-.44-.25-2.54-1.59-2,0-2.49-3.12-7.19.33-9.55-2.74a1.61,1.61,0,0,0,.69,0c.87-.18,1.64.3,2.48.3a78.89,78.89,0,0,0,9.24-.1c.64.74,2.12-.18,3.07-.56.28,0-.08,1.07.28.94,1.69-.48,3.35-.18,5.4-.63a4,4,0,0,0-4.74-.13c-.13-.15.11-.88-.13-.88-.38,1.24-.35-.11-.58-.13a17.47,17.47,0,0,1-6.88.23c.48-1.22,1-.71,1.58-1,.49,1.87,2.38-1.55,3.1-.2,1-1.42,1.79-.16,2.83-1.5.21,0,.06.51.26.48a2.42,2.42,0,0,1,3.56.26c-.59.58-1.15,0-1.54,1,.47-.22,1,0,1.59-.3.31-.84-.18-.46.13-1.32,1.58.69,3.66-.37,5.22.36.23.1.3.66.56.73.49.18,1.3-.43,1.87-.3a6.28,6.28,0,0,1,2,.68,5.79,5.79,0,0,1,1.15-1.09c-.21.56-.36.61-.13.71.66-.66.89-.78,1.23,0-.26.66-.39.08-.64.86.46.46,1.05-.3,1.66-1.21-.08-1.6-1.1-.69-1.79-.94-1.25-.48-2.58-1.6-4-1.24-.92-1.83-3.17,1-3.94-1.24-.31,0-.59.48-.9.6.06-.83.06-.88-.23-1.26-.3.71.18.81-.12,1.14-.62.68,0-1-.34-1a27.52,27.52,0,0,1-3.19-.43c-1.51-.28-4.22,1.42-4.86.07-2.1-.15-4.5-.15-7-.12-.67-1-2.33-.61-3.07,0-2.15,0-4.32.08-6.4,0-1,0-1.68-.87-2.91-.79-4.35.36-9.34.58-14.27,1.17a3.47,3.47,0,0,0-2.1-.21c1.33-.5,2.53-.12,3.81-1,2.91.38,6.42-.68,9.62-.43a11.34,11.34,0,0,0,3.24,0c.46-.13.64,0,1.13,0a4.16,4.16,0,0,1,.61,0c1,1.07,3.15.66,4.63,1,.18-.4.34-.78.52-1.19a.82.82,0,0,1-.24-.1c1.62,0,3.2-.08,4.69-.18.51,0,1.35-.35,1.66-.17.15.1.08.65.23.65.38,0,.92-.38,1.33-.35,1.2.07,2.64.23,4,.2a15.57,15.57,0,0,1,4.38.74c.17,0,.51-.41.69-.41s.46.51.71.51c6.37,0,13.1.71,20.16.38.46-.23-.08.73.38.5a18.16,18.16,0,0,0,1.51-1.36c-1.84-1.22-4.65.83-5.85-1.45-2.79,1.83-4.64-1-7,.05a1.07,1.07,0,0,0-.38-.1,2.61,2.61,0,0,1,.2-.3c7.7-.36,15.19,1.67,24.43-1.85.54-.84-2.53-.46-2.48-1.27-1.18-.93-3.07-1-4.65-.86-.8.08-1.52.21-2,.31a7.78,7.78,0,0,0-.81.22c-3.89-1.67-5.56-.45-9.37-2.55-1,.2-2,.4-3,.55a.7.7,0,0,0-.41-.3,1.58,1.58,0,0,0-.23.4l-.54.11c-.13-.13-.26-.26-.38-.36.1-.08.17-.15.28-.23,2.2-.83,4.43-5,4.43-5-3.36.8-5.32.15-8.32-1.13v-1h0c-1.13-1-2.23-1-3.37-1.8-1.61.23-3.79.9-4.89.09-2.94,0-5.52-1.5-8.21-2.34-.59-.18-1.15-1-1.74-1h-7c-.18,0-.49,1.34-.74,1.49l.07-.2-.81,1.15c-.47.07.17-1.73.58-1.88-.46,0-.89-.56-1.35-.56H317c-.56,1-1.07.35-1.61,1.82a1.93,1.93,0,0,1,.28-1c-1.53.56-1.87.14-2.43-.86H201.31c-.18,0-.39.63-.57.65a5.25,5.25,0,0,0-2.58.71s0,.19,0,.21a6,6,0,0,0-2.25,1.47,3.6,3.6,0,0,0-2.45-.81,8.88,8.88,0,0,0-1.54,1.87l-1,.08c0-.15-.08-.27-.1-.37-1.15-.18-2.26-1.72-3.23.28l0-1a7.07,7.07,0,0,1-1.67,1.57c-.43,0-.87.1-1.33.18a1.5,1.5,0,0,1-.33-.26.79.79,0,0,1-.13.31c-.43.05-.89.1-1.33.18a8.2,8.2,0,0,0-2.22.3c-2.51.38-5,.78-7.55,1.14-2.81.35-5.36.66-8.43.89-.33,1.31-1.58,1.87-1.58,2.17v0c-1-.13-1,0-1.19.25-.18,0-.81,0-.81.08v-.08s-.25.08-.35.13c-1.28.2-2.52.5-3,2.15a2.57,2.57,0,0,0,.38,1.52,2,2,0,0,0-.11.3l-.19-.27a1.46,1.46,0,0,1,.27.73v.28l.33-.18c.16.13.67.28.67.41v.1s.14,0,.16,0a5,5,0,0,1,2,3.17c-1.33,2.3-3.54-.36-5.1-1.09a5.23,5.23,0,0,0,2.11,3.65,4.47,4.47,0,0,0-2.07,2.38c2.2.48,6.61-.21,8.65.55-1.69,1.17-4.09.53-6.39,1.14.08,1,.66.71.64,2q-2.81.57-5.6,1.19c-5.71,1.21-11.28,2.18-16.27.86-2.59.53-5.07,1.14-7.52,1.72-4-.53-8.27-1.34-12.69-.86a31.36,31.36,0,0,0-8.26,2.61c-.56,0-1.1,0-1.64.05-2.33.28-4.71,1.34-7,1.75-3.09.53-6.47-1.88-8.49,1.44-.46-1.85-2.56-.74-3,.86.92.81,2.45-1.14,3.27.53A23.38,23.38,0,0,0,89.47,137a22.06,22.06,0,0,0-11.28,7.85c-.16,1.87.79.48.64,2.35,0,1.57-.74,1.17-1,2.08.85-.05,1.21-.86,1.82.28-.66,1.92-2,1.95-2.33,4.68a24.34,24.34,0,0,1,2.61-2.58c-.1.38-.2.76-.28,1.17,0,.83-.05,1.52-.08,2.12a9.2,9.2,0,0,0-2,2.66c.54.74,1.33-1,2-.4,0,1,0,1.74.07,2.68a2.9,2.9,0,0,0-1.56,1.6,14.62,14.62,0,0,0,1.59-1.19c.07,1,.15,2.13.28,3.85.28.5.56,1,.84,1.42a14.81,14.81,0,0,0-3.24,3.31c.66,2.89-.31,5.27-.85,7.75-.28,0-.59.08-.87.1-.82.08-1.46-1.09-2.17-1.24-2.15-.38-3.66.61-5.14,1a1.58,1.58,0,0,0-.21,1l.46,0c3-.13,5.91,1.13,8.6,1,.46-.1.8-.15,1.26-.23l.42.08v-.18c3-.4,5.16-1.33,7.69-1.77a13.51,13.51,0,0,0,5-1.46h.1a14.77,14.77,0,0,0,5.39,3c-.79.43-1.66,1.79-2.68,3.46,1.43-.68,2.61-1.13,3.68-1.63-.41,1,.08,2.3-.12,2.78-.9.28-2.1-.4-2.28,2.24a1.84,1.84,0,0,1,2.07-.62c-2.73,1.42-6,.49-8.54,2-2-1-4-1.29-6.12.38.62.13,1.21.23,1.82.33-5.65.38-11.25.76-16.93,1.57a56.26,56.26,0,0,0-6.19,1.3c-.16-.1-.29-.08-.44.1-1.25.33-2.51.66-3.78,1-3.1.88-6.07,1.87-9,2.68a2.54,2.54,0,0,0-.64-.1v.31c0,.07-.59.12-.82.17-7.23,1.22-25,2.92-47.11,5.12,0,0,5.92.58,11.88,1.14,3,.33,6,.66,8.19,1,1,.13,1.84.23,2.47.33-.22.15-.49.33-.72.51.26.15.54.33.82.48-2.58,2,6.55,2.33,10.49,2.63a83.45,83.45,0,0,0,9.53.25c1.74-.07,3.27-.17,5.27-.27V206a74.25,74.25,0,0,1,11.85,2.2c1.07-.13,2.17-.3,3.37-.43-.56.38-1.16.79-1.75,1.24a1.07,1.07,0,0,1-.19.13c-.34-1.83-1.75-.33-2.08,1.34,0,.07,0,.13,0,.18-1.23.88-2.51,1.77-4,2.86.34,0,.61,0,.87.05a2.12,2.12,0,0,0,0,.38,3.28,3.28,0,0,1,.66.35c-1.2.56-2.1-.2-3.43,1.7.57,0,1,0,1.74.07-1,.54-1.82,1-2.66,1.42-.54-1.85-2.35-.25-3,1.7.82.89,2.38,1.49,2.89-.36a7.71,7.71,0,0,0,1-.25L53.17,220a9.09,9.09,0,0,0-2.89,1.68c-1.12.88-2.35,1.11-3.83,1.82,1.68,2.48,5.6-2,7.93-1.78-1.56,1.26-3.12.27-4.79,2.27H62.92c-.18,0-.36,1-.56,1.4.87,0,1.48.3,2.66.4-2.66,2-4.73,3.67-7.14,5.56,1.87,2.51,5-.6,7.83-1.52.25,1.07.59,2.49.87,3.62-.46.26-1.66,1.38-2.4,1.26-2.08-.38-4.22.92-7,4.06-1.77,2.05-3.61,2.58-5.89,4.15,1.57,3.93,5,.79,8.09-1.42.74.08,1.3.18,1.43.41-2.1,1.29-4.19,1.9-6.55,6.61.67,3.7,3.48.1,5.4-.61s3.84-1.18,5.81-1.74c.28,2.12.53,4.15.82,6.4-1.69.64-3.33,1.27-5.33,2.08-.12,3.17-.2,5.45-.25,7.29,1.87.53,3.27,2.41,5.12,1.27,7.85-4.71,13.35-1.32,20-1.72a181.84,181.84,0,0,1,19.41.15,82.87,82.87,0,0,0,17.88-.73,11.72,11.72,0,0,1,2.25-.11,28.19,28.19,0,0,1-1,5.25c-.48,0-1,0-1.48.05-.56-.3-1.08-1-1.59-1.07-2.15-.4-3.66.59-5.14,1a.63.63,0,0,0-.13.26c-8.69.27-20.36.58-33.63,1.26,0,0,5.73.94,11.46,1.85s11.43,2,11.33,2.38c-5.66,2.16,4.42,3.4,8.52,4.11a79.08,79.08,0,0,0,8.9,1l1.58.07c-2.81.23-5.6-.21-8.41.19a23.19,23.19,0,0,1-3-.21H111.7s-.08,1-.1,1h-.49c.21-1,.39-1,.59-1h-3.51s-.07.82-.1.87c-.18,0-.38.35-.53.35-.16.36-.31.89-.46,1.25a4.6,4.6,0,0,1-.52.47c-.4.13-.79.28-1.2.38l-3.27,1c-2.18.1-4.35.21-6.55.37-1.46.43-.46-1.11-1.92-.68-.61.33-1.25.69-1.89,1a8,8,0,0,0-4.58.3c.38.94,1.59,1.09,2.76.86a1.75,1.75,0,0,0-.2.16,21.11,21.11,0,0,0,3.55.32c-2.4.36-5.6.76-9.46,1.19a11.47,11.47,0,0,1-5.4-1.64c.36-.31,2.15.35,3-.53,1.15.48,3.09.4,3.7-.74-3.83-1.49-14.63.69-19,.31-.87.91-2.17,1.26-2.61,2.71.92.88,2-.71,3.25-.69,2.18-.12,5.14-.33,8.06-.65a1.38,1.38,0,0,1,.23.38,9.86,9.86,0,0,1-4.68.63c-.15.38-.31.78-.46,1.19a37.75,37.75,0,0,1,6.11-.13c-8,.84-17.67,1.77-28.39,2.84,0,0,6.27.58,12.23,1.16.58.05,1.07.13,2.07.18v5a97.29,97.29,0,0,1,11.69,2.18c3.22-.38,7.34-1.09,10.1-.43,7.16-.28,14,.73,21.08,1.36-1.15.08-2.55.26-4,.51a1.55,1.55,0,0,0-.92.15l-1.44.28c-2.07-.45-3.84-1.55-5.63-.48-5.4-1.52-11.62-2.15-16.45.38-1.56.53-.55-1.75-1.24-1.57-3,1.29-5.19,1-9.19.91v6.91a57.88,57.88,0,0,1,7,1.07c.3,6.86,5.12,4.66,6.7,1.42,0-.16,0-.28,0-.43.43-.08.9-.13,1.36-.18-.53.63-1.11,1.27-1.8,2l2.47.26a.49.49,0,0,0,.72.1,2.37,2.37,0,0,1,.43,0c-2.76,3.85-4,0-6.83,5.32.87.07,1.49.1,2.69.2-2.69,2-4.73,3.6-7.16,5.47,1.89,2.53,5-.66,7.83-1.57.25,1.06.58,2.46.87,3.6-.46.25-1.67,1.39-2.41,1.24-2-.38-4.19.91-6.93,4.07-1.77,2-3.63,2.56-5.88,4.13,1.53,3.95,5,.79,8-1.42.75.08,1.33.21,1.46.41-2.1,1.29-4.19,1.9-6.55,6.61.64,3.7,3.48.1,5.4-.61s3.66-1.14,5.52-1.67a20.51,20.51,0,0,0-2.83,2.76c-1.77,2.05-3.64,2.58-5.89,4.13,1.54,3.95,5,.81,8.06-1.39.74.07,1.33.17,1.43.4-.81.51-1.63.91-2.48,1.52-.82.3-1.63.63-2.53,1,0,.58,0,1.11,0,1.62a20.35,20.35,0,0,0-1.49,2.46c.23,1.29.72,1.69,1.34,1.64,0,.56,0,1.09-.06,1.6,1.87.5,3.28,2.38,5.15,1.26a17.53,17.53,0,0,1,5.39-2.2c.08.58.13,1.16.21,1.75-1.69.65-3.33,1.29-5.32,2.1-.1,3.17-.18,5.44-.26,7.3,1.87.53,3.28,2.4,5.12,1.26,7.85-4.71,13.35-1.32,20-1.72,4.71-.31,9.34-.23,13.92-.08.18.08.28.15.25.21-5.65,2.15,4.45,3.36,8.52,4.07,1.84.33,3.56.53,5.17.71-8.42.25-19.19.56-31.31,1.19,0,0,5.75.91,11.48,1.85s11.44,2,11.31,2.38c-5.65,2.15,4.45,3.39,8.52,4.08,1.38.25,2.68.43,3.91.58a1.21,1.21,0,0,1-.05.18c.56.25,1,.48,1.54,0,1.2.13,2.38.23,3.5.28,2.25.13,4.48.23,6.78.36.59.58,1.25,1.19,2.3.17l.84.11a1.8,1.8,0,0,1-.12.25,1.06,1.06,0,0,0,1.28-.15c2.66.3,5.29.63,7.88,1.06a3.84,3.84,0,0,0-.36,1.12c.56-.13,1.2.48,1.66-.89l1.18.23a3.36,3.36,0,0,0-1.26.2c-.3.86.21.48-.1,1.34-1.59-.71-3.68.36-5.22-.35-.25-.13-.33-.69-.58-.76-.49-.18-1.28.43-1.87.3a5.84,5.84,0,0,1-2-.68,7.07,7.07,0,0,1-1.13,1.09c.21-.54.36-.61.1-.71-.64.68-.89.78-1.2,0,.23-.66.38-.07.64-.86-.49-.45-1.07.31-1.66,1.22.07,1.62,1.1.68,1.79,1,1.23.46,2.58,1.6,4,1.24.92,1.8,3.2-1,4,1.22.28,0,.59-.48.89-.61-.07.83,0,.89.23,1.27.31-.71-.17-.82.13-1.14.62-.69,0,1,.31,1a26.29,26.29,0,0,1,3.2.43,3.74,3.74,0,0,0,1.38-.1,1,1,0,0,0-.13.36,3,3,0,0,0,.2.53,3.36,3.36,0,0,1-.48-.13c-.15,0-.49.41-.66.41s-.47-.48-.72-.48c-6.37-.08-13.1-.74-20.16-.41-.49.23.08-.71-.38-.51a15.59,15.59,0,0,0-1.51,1.37,2.61,2.61,0,0,0,1.51.41,3.41,3.41,0,0,0-.57,1.11c.06,0,.08,0,.11,0a33.68,33.68,0,0,0-12.41,2.1c-.56.86,2.53.45,2.48,1.27,1.15.93,3.07,1,4.66.85a19.45,19.45,0,0,0,2-.3l.82-.2c3.88,1.64,5.52.43,9.36,2.53,1-.2,2-.38,3-.56a.51.51,0,0,0,.41.31,1.1,1.1,0,0,0,.2-.41c.18,0,.39-.07.56-.1l.39.36c-.11.07-.18.14-.29.22a5.91,5.91,0,0,0-2.14,1.7c-1,0-2.05,0-3.1.05-.46.23.1-.73-.36-.51a14.61,14.61,0,0,0-1.51,1.37c1.16.74,2.69.23,4,.31-.36.48-.64.91-.87,1.26a35.45,35.45,0,0,0-14.45,2.08c-.57.83,2.53.46,2.48,1.26,1.15.92,3,1,4.65.87a16,16,0,0,0,2-.33,5.81,5.81,0,0,0,.82-.21c3.89,1.68,5.53.44,9.36,2.56,1-.23,2-.4,3-.58a.51.51,0,0,0,.41.31,1.14,1.14,0,0,0,.21-.41l.56-.08a4.07,4.07,0,0,0,.36.36,1.79,1.79,0,0,0-.26.23c-2.23.83-4.55,5-4.55,5,5.09-1.19,8.29.91,11.82,3.52,1.63-.23,3.78-.68,4.91.11a27.24,27.24,0,0,1,8.21,1.22c.56.17,1.15-.2,1.71-.2h7a2.22,2.22,0,0,0,.74-.24l-.08.81.8-.84c.46-.05-.16.65-.59.81.46,0,.92-.54,1.36-.54H195c.59,0,1.1.9,1.61-.59,0,.33-.1,0-.25.36,1.53-.56,1.86-.77,2.4.23H310.61c.2,0,.38.63.56.6.95,0,1.87.35,2.61-.08,0,0,0,.12,0,.1a5.78,5.78,0,0,0,2.26-1.31,3.67,3.67,0,0,0,2.43.88c.74-.89,1.12-1,1.55-1.83.31,0,.64,0,.95-.06.05.15.08.28.11.39,1.17.17,2.27,1.72,3.22-.28l0,1a8.62,8.62,0,0,1,1.67-1.59l1.33-.15a.94.94,0,0,1,.33.23,1.46,1.46,0,0,1,.13-.28c.46-.08.89-.13,1.35-.18a8.28,8.28,0,0,0,2.23-.3c2.48-.38,5-.79,7.54-1.14,2.82-.36,5.71-.66,8.75-.89a2.82,2.82,0,0,1,1.92-2.18.74.74,0,0,0,.9-.23l.48-.07s0,0,0,.05l.35-.1c1.28-.23,2.49-.51,3-2.18a2.57,2.57,0,0,0-.41-1.49c.05-.08.07-.18.13-.31l-.13.28a5.1,5.1,0,0,0-.59-.73,1.31,1.31,0,0,1,0-.28v.18c-.12-.16-.3-.28-.3-.41v-.13s-.18,0-.21.06a5,5,0,0,1-2-3.17c1.33-2.33,3.52.35,5.11,1.09a5.35,5.35,0,0,0-2.14-3.65,4.49,4.49,0,0,0,2.06-2.38c-1.66-.38-4.61-.08-6.81-.23a4,4,0,0,0-.26-.55,1.81,1.81,0,0,0-.28-.33c1.53-.38,3.35-.13,5.12-.61-.08-1-.7-.69-.64-2,1.84-.35,3.7-.76,5.57-1.16,5.7-1.22,11.31-2.18,16.3-.86,2.55-.53,5-1.14,7.49-1.72,4,.53,8.26,1.31,12.69.86a31.39,31.39,0,0,0,8.26-2.61,11.33,11.33,0,0,0,1.66-.08c2.3-.25,4.71-1.31,7-1.72,3.1-.53,6.45,1.85,8.47-1.47.48,1.88,2.58.73,3-.83-.95-.84-2.48,1.14-3.28-.56a20.5,20.5,0,0,0,2.36-1.14,22.36,22.36,0,0,0,11.28-7.85c.15-1.88-.8-.48-.64-2.36,0-1.57.74-1.16,1-2.08-.83.06-1.21.87-1.8-.27.64-1.95,1.95-1.95,2.33-4.69a18.58,18.58,0,0,1-2.63,2.56l.3-1.14c0-.84.06-1.52.06-2.15a9,9,0,0,0,2-2.64c-.52-.73-1.31,1-1.95.41,0-1,0-1.75-.07-2.69A3,3,0,0,0,433.9,352a11.33,11.33,0,0,0-1.61,1.19c-.05-1-.13-2.15-.26-3.85-.3-.53-.58-1-.86-1.42a14.54,14.54,0,0,0,3.27-3.32c-.67-2.89.31-5.27.82-7.75.3,0,.58-.07.87-.1.81-.07,1.48,1.09,2.2,1.22,2.12.4,3.65-.59,5.14-1a1.58,1.58,0,0,0,.2-1l-.48.05c-3,.13-5.91-1.14-8.6-1l-1.38.23-.51-.1,0,.18c-1.58.28-3.19.53-4.81.78a14.07,14.07,0,0,0,1.41-1.67c0-.1,0-.2,0-.3,1.25-.43,2.53-.94,3.89-1.55-.51-3.85-2.79.79-4.07-.25,0-.33,0-.66,0-1,.44-.05,1-.37,1-1.36a1.79,1.79,0,0,1-.79.15c.23-1.16.56-2.3.79-3.44.31-.05.59-.11.89-.13.49-.05.93.38,1.36.73l.23.81.36,1.07-.31-1.17-.23-.65a2.06,2.06,0,0,0,.77.45c2.12.4,3.66-.61,5.14-1a3.21,3.21,0,0,0,.2-1.39L438,325h0c1.94-1,3.91,0,5.88-.31s4-.57,6.17-1.1c.15.07.31.17.43,0,1.26-.33,2.53-.61,3.79-1,3.61-1,7.27-2.18,10.64-3.07,7.24-1.22,25-2.87,47.07-5.08Z"/><rect class="a" width="512" height="512"/><path class="e" d="M362.48,190.62a88,88,0,0,1-25.09,6.81,43.59,43.59,0,0,0,19.22-23.93A88.62,88.62,0,0,1,328.86,184a43.8,43.8,0,0,0-75.59,29.59,42.29,42.29,0,0,0,1.14,9.86,124.46,124.46,0,0,1-90.08-45.22A43.07,43.07,0,0,0,177.85,236a43.89,43.89,0,0,1-19.78-5.42v.54a43.4,43.4,0,0,0,35,42.42,44,44,0,0,1-11.5,1.51,44.86,44.86,0,0,1-8.24-.77,43.72,43.72,0,0,0,40.83,30,88.2,88.2,0,0,1-54.27,18.51,89.16,89.16,0,0,1-10.41-.6,124.52,124.52,0,0,0,67,19.43c80.36,0,124.32-65.91,124.32-123.09,0-1.86,0-3.73-.13-5.58A87.7,87.7,0,0,0,362.48,190.62Z"/><rect class="a" width="512" height="512"/></svg>